<svg id="Layer_1" enable-background="new 0 0 479.975 479.975" height="512" viewBox="0 0 479.975 479.975" width="512" xmlns="http://www.w3.org/2000/svg"><path d="m458.377 251.117c-1.22-7.37-1.22-14.89 0-22.26l4.68-28.33c3.62-21.88-3.62-44.16-19.4-59.73l-20.45-20.17c-5.31-5.25-9.73-11.33-13.08-18.01l-12.87-25.68c-9.93-19.82-28.88-33.59-50.8-36.91l-28.4-4.3c-7.38-1.12-14.54-3.45-21.17-6.88l-25.5-13.21c-19.69-10.2-43.11-10.2-62.8 0l-25.5 13.21c-6.63 3.43-13.79 5.76-21.17 6.88l-28.4 4.3c-21.92 3.32-40.87 17.09-50.8 36.91l-12.87 25.68c-3.35 6.68-7.77 12.76-13.08 18.01l-20.45 20.17c-15.78 15.57-23.02 37.85-19.4 59.73l4.68 28.33c1.22 7.37 1.22 14.89 0 22.26l-4.68 28.33c-3.62 21.88 3.62 44.16 19.4 59.73l20.45 20.17c5.31 5.25 9.73 11.33 13.08 18.01l12.87 25.68c9.93 19.82 28.88 33.59 50.8 36.91l28.4 4.3c7.38 1.12 14.54 3.45 21.17 6.88l25.5 13.21c19.69 10.2 43.11 10.2 62.8 0l25.5-13.21c6.63-3.43 13.79-5.76 21.17-6.88l28.4-4.3c21.92-3.32 40.87-17.09 50.8-36.91l12.87-25.68c3.35-6.68 7.77-12.76 13.08-18.01l20.45-20.17c15.78-15.57 23.02-37.85 19.4-59.73z" fill="#d1e7ff"/><path d="m393.175 96.622c-12.938-2.137-26.203-3.31-39.715-3.442-1.657-.016-3.261-.555-4.597-1.537-30.486-22.407-68.131-35.655-108.874-35.656-101.542 0-184.005 82.464-184.002 184.005.001 40.741 13.249 78.386 35.654 108.87.982 1.336 1.522 2.941 1.538 4.6.149 15.313 1.636 30.306 4.346 44.869 1.643 8.83-10.587 13.031-14.65 5.021-21.074-41.533-13.015-31.083-46.558-64.174-15.782-15.568-23.02-37.85-19.4-59.73l4.68-28.33c1.22-7.37 1.22-14.89 0-22.26l-4.68-28.33c-3.62-21.88 3.62-44.16 19.4-59.73l20.45-20.17c5.31-5.25 9.73-11.33 13.08-18.01l12.87-25.68c9.93-19.82 28.88-33.59 50.8-36.91l28.4-4.3c7.38-1.12 14.54-3.45 21.17-6.88l25.5-13.21c19.69-10.2 43.11-10.2 62.8 0l25.5 13.21c6.63 3.43 13.79 5.76 21.17 6.88l28.4 4.3c21.92 3.32 40.87 17.09 50.8 36.91l4.238 8.458c2.877 5.739-1.986 12.272-8.32 11.226z" fill="#e8f3ff"/><path d="m239.989 55.988c101.62 0 183.999 82.38 183.999 184s-82.38 184-184 184-184-82.376-184-183.996 82.381-184.004 184.001-184.004z" fill="#b9dcff"/><path d="m327.149 94.252c-122.775 11.255-221.609 108.871-232.905 232.887-.695 7.628-10.841 9.825-14.606 3.154-15.054-26.675-23.65-57.484-23.651-90.302-.004-101.541 82.46-184.005 184.001-184.004 32.825 0 63.639 8.599 90.318 23.659 6.673 3.766 4.473 13.906-3.157 14.606z" fill="#d1e7ff"/><g fill="#2e58ff"><path d="m466.273 249.814c-1.077-6.521-1.077-13.132 0-19.652l4.681-28.334c4.033-24.407-4.072-49.352-21.681-66.726l-20.442-20.172c-4.705-4.643-8.591-9.991-11.551-15.897l-12.868-25.677c-11.083-22.114-32.302-37.531-56.76-41.237l-28.395-4.305c-6.533-.989-12.821-3.032-18.689-6.072l-25.5-13.209c-21.966-11.378-48.194-11.378-70.16 0l-25.502 13.208c-5.868 3.04-12.156 5.083-18.688 6.073l-28.395 4.304c-24.458 3.706-45.677 19.123-56.761 41.238l-12.868 25.676c-2.959 5.906-6.846 11.255-11.55 15.897l-20.442 20.172c-16.809 16.586-25.068 40.471-22.095 63.894.557 4.383 4.562 7.482 8.944 6.929 4.383-.557 7.485-4.561 6.929-8.944-2.35-18.508 4.177-37.383 17.46-50.489l20.442-20.172c5.953-5.875 10.871-12.644 14.617-20.118l12.867-25.675c8.759-17.477 25.527-29.659 44.854-32.589l28.395-4.303c8.267-1.253 16.225-3.839 23.65-7.686l25.502-13.208c17.357-8.99 38.083-8.99 55.442 0l25.501 13.208c7.426 3.847 15.383 6.433 23.65 7.686l28.395 4.303c19.327 2.93 36.095 15.112 44.854 32.588l12.868 25.676c3.746 7.476 8.664 14.244 14.617 20.118l20.442 20.172c13.915 13.73 20.319 33.441 17.132 52.729l-4.681 28.335c-1.363 8.25-1.363 16.617 0 24.867l4.681 28.336c3.187 19.286-3.218 38.997-17.133 52.728l-20.442 20.172c-5.953 5.874-10.871 12.643-14.617 20.118l-12.867 25.675c-8.759 17.477-25.527 29.659-44.854 32.589l-28.395 4.303c-8.267 1.253-16.224 3.839-23.65 7.686l-25.502 13.208c-17.357 8.99-38.083 8.99-55.442 0l-25.501-13.208c-7.426-3.847-15.383-6.433-23.65-7.686l-28.395-4.303c-19.327-2.93-36.095-15.112-44.854-32.588l-12.868-25.676c-3.746-7.475-8.664-14.243-14.617-20.118l-20.441-20.173c-13.915-13.73-20.319-33.441-17.132-52.729l3.794-22.963c.72-4.358-2.23-8.477-6.589-9.196-4.359-.725-8.477 2.229-9.197 6.589l-3.794 22.962c-4.033 24.407 4.072 49.352 21.681 66.726l20.442 20.172c4.705 4.643 8.591 9.991 11.55 15.897l12.868 25.677c11.083 22.114 32.302 37.531 56.76 41.237l28.395 4.305c6.533.989 12.82 3.032 18.689 6.072l25.501 13.208c21.965 11.377 48.194 11.378 70.16 0l25.502-13.208c5.868-3.04 12.156-5.083 18.689-6.073l28.395-4.304c24.458-3.706 45.677-19.123 56.761-41.238l12.867-25.676c2.96-5.906 6.847-11.255 11.551-15.897l20.441-20.172c17.609-17.374 25.714-42.318 21.681-66.725z"/><path d="m204.559 202.488c0-8.309-4.193-15.665-10.593-20.097 9.693-15.858-1.842-36.403-20.718-36.403h-21.26c-4.418 0-8 3.582-8 8v65c0 4.418 3.582 8 8 8h27.857c13.627 0 24.714-10.991 24.714-24.5zm-44.572-40.5h13.26c4.526 0 8.208 3.589 8.208 8s-3.682 8-8.208 8h-13.26zm0 32h19.857c4.805 0 8.714 3.813 8.714 8.5s-3.909 8.5-8.714 8.5h-19.857z"/><path d="m233.987 199.988h6.029c14.872 0 26.971-12.099 26.971-27.029 0-14.872-12.099-26.971-26.971-26.971h-14.029c-4.418 0-8 3.582-8 8v65c0 4.418 3.582 8 8 8s8-3.582 8-8zm0-38h6.029c6.049 0 10.971 4.922 10.971 11.029 0 6.049-4.921 10.971-10.971 10.971h-6.029z"/><path d="m191.987 333.988c4.418 0 8-3.582 8-8v-10.109l19.932 16.321c1.487 1.218 3.281 1.811 5.063 1.811 7.512 0 10.853-9.457 5.073-14.189l-16.857-13.804c11.396-3.153 19.789-13.624 19.789-26.059 0-14.872-12.099-26.971-26.971-26.971h-14.029c-4.418 0-8 3.582-8 8v65c0 4.418 3.582 8 8 8zm8-65h6.029c6.049 0 10.971 4.922 10.971 11.029 0 6.049-4.921 10.971-10.971 10.971h-6.029z"/><path d="m164.987 268.988c4.418 0 8-3.582 8-8s-3.582-8-8-8h-33c-4.418 0-8 3.582-8 8v65c0 4.418 3.582 8 8 8s8-3.582 8-8v-22h16c4.418 0 8-3.582 8-8s-3.582-8-8-8h-16v-19z"/><path d="m284.987 268.988c4.418 0 8-3.582 8-8s-3.582-8-8-8h-33c-4.418 0-8 3.582-8 8v65c0 4.418 3.582 8 8 8h33c4.418 0 8-3.582 8-8s-3.582-8-8-8h-25v-17h17c4.418 0 8-3.582 8-8s-3.582-8-8-8h-17v-16z"/><path d="m345.987 268.988c4.418 0 8-3.582 8-8s-3.582-8-8-8h-33c-4.418 0-8 3.582-8 8v65c0 4.418 3.582 8 8 8h33c4.418 0 8-3.582 8-8s-3.582-8-8-8h-25v-17h17c4.418 0 8-3.582 8-8s-3.582-8-8-8h-17v-16z"/><path d="m296.987 218.988v-13h23v13c0 4.418 3.582 8 8 8s8-3.582 8-8v-45.818c0-14.352-11.328-27.182-27.819-27.182-14.988 0-27.181 12.193-27.181 27.182v45.818c0 4.418 3.582 8 8 8s8-3.582 8-8zm11.182-57c7.567 0 11.819 5.575 11.819 11.182v16.818h-23v-16.818c-.001-6.167 5.015-11.182 11.181-11.182z"/><path d="m406.492 182.803c1.435 4.179 5.983 6.41 10.165 4.969 4.179-1.435 6.403-5.985 4.968-10.164-26.621-77.53-99.615-129.62-181.637-129.62-105.869 0-192 86.131-192 192s86.131 192 192 192c101.613 0 185.806-79.388 191.675-180.732.255-4.411-3.113-8.194-7.524-8.449-4.397-.275-8.194 3.113-8.449 7.523-5.379 92.893-82.556 165.658-175.701 165.658-97.047 0-176-78.953-176-176s78.953-176 176-176c75.188 0 142.101 47.748 166.503 118.815z"/></g></svg>