<svg height="50" viewBox="0 0 463.89 463.89" width="50" xmlns="http://www.w3.org/2000/svg"><path d="M457.138 102.118c-19.421 66.191-74.053 144.379-119.25 196.25-61.215 79.517-165.043 83.15-209.148 40.584-44.851-43.286-43.993-149.838 36.778-212.955 50.286-43.808 121.995-93.805 184.64-115.53 89.385-30.997 131.122 9.012 106.98 91.651" fill="#ffe773"/><path d="M463.628 51.848c-67.813-53.303-383.73 116.02-340.28 281.32-39.25-46.37-35.21-146.7 42.17-207.17 50.29-43.81 121.98-93.84 184.64-115.53 53.73-18.658 108.42-15.712 113.47 41.38" fill="#fff0a6"/><path d="M459.428 33.278c-5.366-13.674-15.515-23.619-28.82-28.82-16.901 2.505-38.414 14.38-53.12 23.28-4.76-7.37-8.83-14.78-12-22.04q-7.515 2.055-15.33 4.77c1.731 5.191 8.466 17.477 13.84 25.77-20.87 13.6-42.37 29.63-61.76 44.93-14.145-27.25-9.937-38.813-12.38-43.18-4.94 2.72-9.9 5.55-14.86 8.48.86 14.19 6.16 29.57 14.48 44.9-18.81 15.21-38.27 31.8-57.62 49.11-19.379-33.541-16.171-47.429-19.67-52.05q-6.9 5.13-13.62 10.38c2.87 16.14 10.13 34.14 21.18 52.62-4.95 4.52-9.87 9.07-14.77 13.66-3.23 3.01-3.39 8.08-.37 11.3 3.02 3.23 8.08 3.39 11.31.38 25.56-23.94 53.72-48.69 81.89-71.57 15.43 23.36 37.02 45.67 59.64 62.39-15.26 18.74-31.85 38.1-49.14 57.3-17.81-13.26-35.32-29.74-50.83-48.23a7.995 7.995 0 0 0-11.27-.99 7.995 7.995 0 0 0-.99 11.27c15.9 18.95 33.88 35.93 52.32 49.79-3.45 3.76-6.92 7.51-10.42 11.24-4.77 5.1-1.12 13.47 5.84 13.47 2.14 0 4.27-.85 5.84-2.53 3.99-4.26 7.96-8.55 11.9-12.85 17.11 11.36 34.28 19.84 50.25 24.54 3.43-4.33 6.83-8.72 10.2-13.16-3.48-2.706-18.964-3.436-49.61-23.34 17.3-19.25 33.89-38.65 49.16-57.44 4.89 3.09 9.78 5.87 14.63 8.32 3.92 1.97 8.74.42 10.74-3.55a7.99 7.99 0 0 0-3.54-10.74c-3.87-1.95-7.8-4.16-11.74-6.6 15.65-19.75 31.95-41.52 45.69-62.4 11.35 8.25 23.41 15.019 25.63 15.76 1.88-5.2 3.56-10.32 5.03-15.33-7.4-3.91-14.81-8.62-22.09-13.92 9.179-14.992 21.792-37.452 24.38-54.92m-91.93 121.83c-21.64-15.92-42.47-37.44-57.11-60 19.58-15.49 41.79-32.11 62.8-45.77 11.56 15.29 25.59 29.95 40.62 42.48-13.88 21.23-30.6 43.5-46.31 63.29m54.88-76.89c-13.15-11.13-25.41-23.98-35.64-37.36 36.31-21.8 52.05-23.06 55.7-19.41 3.68 3.69 2.35 19.71-20.06 56.77" fill="#facf5f"/><path d="M84.428 424.188c-17.18 24.54-35.27 51.23-52.05 34.45l-27.13-27.13c-16.78-16.78 9.92-34.89 34.44-52.05 35.843-36.122 71.926 10.741 44.74 44.73" fill="#9ceb63"/><path d="M352.918 331.878c-75.157 106.311-200.082 164.587-292.79 71.88-92.745-92.743-34.397-217.65 71.89-292.8 10.63-7.51 25.55-3.56 30.74 8.38 26.669 61.667 20.687 127.945-7.28 189.07 61.732-27.928 127.24-33.942 188.96-7.33 11.99 5.21 16.02 20.13 8.48 30.8" fill="#befa91"/><path d="M356.518 322.958c-45.584-15.44-92.851-13.907-138.837.4-22.627 7.039-30.513-28.209-8.558-33.257 45.196-10.391 91.222-8.032 135.315 10.977 8.88 3.86 13.39 13.04 12.08 21.88m-281.67 94.05c-4.99-4.01-9.9-8.43-14.72-13.25-92.74-92.74-34.4-217.65 71.89-292.8 10.63-7.51 25.55-3.56 30.74 8.38 10.28 23.733-205.71 151.519-87.91 297.67" fill="#daffbf"/><path d="M128.88 384.597a8 8 0 0 1 1.88-11.157c42.618-30.326 92.905-46.756 145.423-47.511 4.255-.106 8.049 3.352 8.114 7.884a8 8 0 0 1-7.884 8.114c-49.258.709-96.416 16.113-136.377 44.55a8 8 0 0 1-11.156-1.88m35.268-97.259c-2.57 7.04-5.45 14.03-8.61 20.93-21.56 9.85-42.24 22.45-61.59 36.94-8.46 6.34-18.02-6.5-9.61-12.79 24.48-18.33 51.41-33.86 79.81-45.08m-56.085 7.102c-5.737 0-9.692-5.954-7.29-11.287 13.573-30.139 20.701-62.33 21.186-95.681a8 8 0 0 1 15.998.232c-.517 35.551-8.119 69.874-22.595 102.019a8 8 0 0 1-7.299 4.717" fill="#9ceb63"/></svg>