<svg height="50" viewBox="0 0 464.132 464.132" width="50" xmlns="http://www.w3.org/2000/svg"><path d="M422.636 151.522c-4.93-9.521-8.244-19.704-9.88-30.41a98.05 98.05 0 0 0-53.03-72.99 98.3 98.3 0 0 1-25.87-18.8 98.1 98.1 0 0 0-85.8-27.88c-5.29.87-10.64 1.31-15.99 1.31-14.264 0-17.72-2.62-31.97-2.62a98.1 98.1 0 0 0-69.82 29.19 98.3 98.3 0 0 1-25.87 18.8 98.05 98.05 0 0 0-53.03 72.99c-1.633 10.684-4.94 20.869-9.88 30.41a98.07 98.07 0 0 0 0 90.22c4.93 9.521 8.244 19.704 9.88 30.41a98.05 98.05 0 0 0 53.03 72.99 98.2 98.2 0 0 1 25.87 18.8c21.906 22.2 53.021 32.613 83.79 28.19v64a8 8 0 0 0 8 8h20a8 8 0 0 0 8-8v-64c30.75 4.421 61.871-5.976 83.79-28.19a98.2 98.2 0 0 1 25.87-18.8 98.05 98.05 0 0 0 53.03-72.99c1.633-10.684 4.94-20.869 9.88-30.41a98.07 98.07 0 0 0 0-90.22" fill="#cbe3fa"/><path d="M250.066 392.132v64a8 8 0 0 1-8 8h-20a8 8 0 0 1-8-8v-64c16.885-2.52 23.715-1.833 36 0" fill="#befa91"/><path d="M166.903 114.933a7.99 7.99 0 0 1-6.478-3.296l-7.72-10.62a8 8 0 0 1 1.767-11.175 8 8 0 0 1 11.175 1.767l7.72 10.62c3.876 5.331-.027 12.704-6.464 12.704m35.45 48.8a7.99 7.99 0 0 1-6.479-3.299l-15.57-21.44a8 8 0 1 1 12.945-9.402l15.57 21.44c3.867 5.323-.016 12.701-6.466 12.701m98.59 135.69a7.99 7.99 0 0 1-6.479-3.297l-17.07-23.49a8 8 0 0 1 1.769-11.175 8 8 0 0 1 11.175 1.769l17.07 23.49c3.875 5.332-.029 12.703-6.465 12.703M183.988 189.014c-1.806 0 4.057 1.73-72.335-23.093a8 8 0 0 1-5.136-10.081 7.996 7.996 0 0 1 10.081-5.136l69.86 22.7a8 8 0 0 1-2.47 15.61m185.44 60.45c-1.824 0 .719.652-41.399-13.128a8 8 0 0 1 4.975-15.207l38.91 12.73a8 8 0 0 1-2.486 15.605m-70.73-23.14c-1.811 0-1.326-.016-21.04-6.468a8 8 0 1 1 4.977-15.207l18.55 6.07a8 8 0 0 1-2.487 15.605m-.049-113.351c-6.441 0-10.34-7.377-6.462-12.707l6.3-8.66a8 8 0 0 1 11.175-1.763 8 8 0 0 1 1.763 11.175l-6.3 8.66a7.99 7.99 0 0 1-6.476 3.295m-36.87 50.76c-6.449 0-10.331-7.378-6.467-12.701l17.021-23.44c2.596-3.575 7.601-4.37 11.174-1.772a8 8 0 0 1 1.773 11.174l-17.021 23.44a8 8 0 0 1-6.48 3.299m-98.72 136.4c-6.431 0-10.321-7.344-6.487-12.672l39.28-54.6a8 8 0 0 1 12.988 9.344l-39.28 54.6a7.99 7.99 0 0 1-6.501 3.328m117.085-111.119a8.002 8.002 0 0 1-2.469-15.611l41.58-13.51c4.204-1.365 8.715.934 10.08 5.136s-.935 8.715-5.137 10.081c-44.965 14.61-42.251 13.904-44.054 13.904m-137.59 44.7a8.002 8.002 0 0 1-2.469-15.61l41.43-13.46a8 8 0 0 1 4.943 15.217c-44.965 14.608-42.101 13.853-43.904 13.853m89.512-110.582a8 8 0 0 1-8-8v-43a8 8 0 0 1 16 0v43a8 8 0 0 1-8 8m0 206a8 8 0 0 1-8-8v-74a8 8 0 0 1 16 0v74a8 8 0 0 1-8 8" fill="#9ec7f0"/><circle cx="231.566" cy="196.632" fill="#ffe773" r="50"/><path d="M240.054 147.35c11.822 2.023 13.83 18.401 2.726 22.932-18.033 7.359-31.213 25.04-31.213 46.35 0 12.8-15.622 16.963-21.975 7.173-23.343-35.969 7.126-83.87 50.462-76.455" fill="#fff0a6"/><path d="M294.316 4.732c13.551 4.582 11.45 24.378-2.739 26.195-5.717.732-17.782 3.429-35.501.516-30.761-5.079-62.962 4.735-85.8 27.88a98.3 98.3 0 0 1-25.87 18.8 98.05 98.05 0 0 0-53.03 72.99c-1.633 10.684-4.94 20.869-9.88 30.41a98.07 98.07 0 0 0 0 90.22c5.233 10.106 8.232 19.93 9.96 30.927 2.237 14.236-16.26 21.811-24.438 9.946-7.208-10.458-13.097-23.69-15.642-40.462-1.633-10.684-4.94-20.869-9.88-30.41a98.07 98.07 0 0 1 0-90.22c4.93-9.521 8.244-19.704 9.88-30.41a98.05 98.05 0 0 1 53.03-72.99 98.3 98.3 0 0 0 25.87-18.8 98.1 98.1 0 0 1 69.82-29.19c14.235 0 17.72 2.62 31.97 2.62 5.35 0 10.7-.44 15.99-1.31 18.162-3.001 33.456-1.042 46.26 3.288" fill="#eef7ff"/><path d="M234.066 398.705v57.428a8 8 0 0 1-8 8h-4a8 8 0 0 1-8-8v-64c4.309-.644 7.583-1.148 11.479-1.412 4.612-.313 8.521 3.361 8.521 7.984" fill="#daffbf"/></svg>