<svg height="50" viewBox="0 0 480 480" width="50" xmlns="http://www.w3.org/2000/svg"><path d="M283.67 341.01v63.67l-55.13 31.83-55.13-31.83v-63.67l55.13-31.83z" fill="#dbeeff"/><path d="M173.41 341.01v63.67l-55.14 31.83-55.13-31.83v-63.67l55.13-31.83z" fill="#fff0a6"/><path d="M118.27 245.5v63.66l-55.13 31.83L8 309.16V245.5l55.14-31.84z" fill="#dbeeff"/><path d="m319.409 416.071-27.739-16.01V341.01a8 8 0 0 0-4-6.928l-55.13-31.83a8 8 0 0 0-8 0l-51.13 29.52-47.139-27.211v-54.443l28.641-16.541a8.001 8.001 0 0 0-8.002-13.856l-28.639 16.539-47.13-27.22v-22.62a8 8 0 0 0-16 0v22.622L4 238.572a8 8 0 0 0-4 6.928v63.66c0 2.858 1.525 5.5 4 6.929l51.139 29.52v59.071a8 8 0 0 0 4 6.928l51.13 29.52V468a8 8 0 0 0 16 0v-26.871l47.139-27.211 51.13 29.52a8 8 0 0 0 8 0l51.131-29.521 27.74 16.011c3.81 2.199 8.709.914 10.928-2.93a8 8 0 0 0-2.928-10.927M16 250.119l47.139-27.22 47.131 27.22v54.423l-47.131 27.211L16 304.541zm55.14 95.509 47.131-27.211 47.139 27.212v54.432l-47.139 27.212-47.131-27.211zm204.53 54.434-47.13 27.21-47.13-27.21v-54.433l47.13-27.21 47.13 27.21z" fill="#9ec7f0"/><path d="M472 398.91H354.58a8 8 0 0 1-4.499-1.385l-17.38-11.82a8 8 0 0 1 8.998-13.23l15.343 10.436H472a8 8 0 0 1 0 15.999m0-43h-51.84a8 8 0 0 1 0-16H472a8 8 0 0 1 0 16m-83.96 0h-19.46a8 8 0 0 1 0-16h19.46a8 8 0 0 1 0 16m55.29-40h-74.75a8 8 0 0 1 0-16h74.75a8 8 0 0 1 0 16M108.87 139.06H8a8 8 0 0 1 0-16h100.87a8 8 0 0 1 0 16m36.39-50H68.62a8 8 0 0 1 0-16h76.64a8 8 0 0 1 0 16m-121.93 0H8a8 8 0 0 1 0-16h15.33a8 8 0 0 1 0 16m121.93-50H8a8 8 0 0 1 0-16h137.26a8 8 0 0 1 0 16" fill="#cbe3fa"/><circle cx="339.427" cy="136.66" fill="#fff0a6" r="132.66"/><path d="M246.767 156.66c0 43.93 21.35 82.87 54.24 107.01-54.53-16.47-94.24-67.1-94.24-127.01C206.767 63.39 266.157 4 339.427 4c29.33 0 56.45 9.52 78.41 25.65-84.748-25.647-171.07 37.774-171.07 127.01" fill="#fff8d6"/><path d="M331.427 220.74v-27.86c0-10.585 16-10.585 16 0v27.86c0 10.584-16 10.584-16 0" fill="#9ceb63"/><path d="M418.927 152.33c7.59.21 11.24 9.3 5.92 14.71-12.98 13.17-31.01 22.51-49.63 26.22a62.3 62.3 0 0 1 9.73 4.12c8.32 4.4 4.7 17.01-4.67 16.25-15.418-1.252-31.43-8.638-40.85-20.75-9.23 11.89-25.09 19.47-40.85 20.75-9.37.76-12.99-11.85-4.67-16.25 3.1-1.64 6.37-3.02 9.74-4.12-18.63-3.71-36.66-13.05-49.63-26.22-5.33-5.41-1.68-14.5 5.91-14.71 12.53-.35 25.52 2.19 37.57 7.04-15.42-19.65-25.46-44.16-26.93-68.14-.43-7.01 7.22-11.67 13.15-7.91 12.72 8.08 23.99 19.2 33.04 32.04.26-21.75 5.31-43.42 15.12-61.74 3.21-5.99 11.89-5.99 15.1 0 9.82 18.32 14.86 39.99 15.13 61.74 9.04-12.84 20.31-23.96 33.03-32.04 5.93-3.76 13.58.9 13.15 7.91-1.47 23.98-11.51 48.49-26.93 68.14 12.05-4.85 25.04-7.39 37.57-7.04" fill="#befa91"/></svg>