<svg id="Layer_1" enable-background="new 0 0 480.022 480.022" height="512" viewBox="0 0 480.022 480.022" width="512" xmlns="http://www.w3.org/2000/svg"><path d="m197.011 138.77v-51.77h-116v51.77c-37.41 19.23-63 58.211-63 103.171v198.059c0 17.67 14.33 32 32 32h178c17.67 0 32-14.33 32-32v-198.06c0-44.96-25.59-83.94-63-103.17z" fill="#d1e7ff"/><path d="m151.743 159.01c-56.144.022-103.785 44.885-103.785 102.93v178.54c-.048 19.351-29.947 20.649-29.947-.48v-198.06c0-44.96 25.59-83.94 63-103.171 0 .359-5.671.23 116 .23v-.23c10.484 5.389 6.237 20.238-4.686 20.24h-40.582z" fill="#e8f3ff"/><path d="m111.011 95v36c0 4.418-3.582 8-8 8h-22v-52h22c4.418 0 8 3.582 8 8z" fill="#e8f3ff"/><path d="m207.741 244v151c0 13.25-10.74 24-24 24h-89.46c-13.26 0-24-10.75-24-24v-151c0-13.25 10.74-24 24-24h89.46c13.26 0 24 10.75 24 24z" fill="#b9dcff"/><path d="m184.97 220.031c12.179.614 11.479 18.969-.716 18.969h-61.973c-13.26 0-24.025 10.75-24.017 24v132.195c-.022 18.152-27.983 19.217-27.983-.195v-151c0-13.25 10.74-24 24-24 95.708 0 89.737-.017 90.689.031z" fill="#d1e7ff"/><path d="m446.011 124h-14v-66c0-27.61-22.39-50-50-50s-50 22.39-50 50v66h-14c-8.84 0-16 7.16-16 16v30c0 8.84 7.16 16 16 16h23v215.15c0 20.67 6.1 41.05 17.8 59.53 9.56 15.09 36.84 15.09 46.4 0 11.7-18.479 17.8-38.86 17.8-59.53v-215.15h23c8.84 0 16-7.16 16-16v-30c0-8.84-7.16-16-16-16z" fill="#d1e7ff"/><path d="m371.011 194v31.192c0 4.5-3.713 8.206-8.208 7.996-6.723-.314-13.828 1.872-21.792 8.811v-56h22c4.418.001 8 3.583 8 8.001z" fill="#e8f3ff"/><path d="m446.011 124h-14v-66c0-27.61-22.39-50-50-50s-50 22.39-50 50v66h-14c-8.84 0-16 7.16-16 16v30c0 8.84 7.16 16 16 16h128c8.84 0 16-7.16 16-16v-30c0-8.84-7.16-16-16-16z" fill="#b9dcff"/><path d="m423.011 244v157.15c0 20.67-6.1 41.05-17.8 59.53-9.56 15.09-36.84 15.09-46.4 0-11.7-18.48-17.8-38.86-17.8-59.53v-159.15c31-27 49 18 82 2z" fill="#b9dcff"/><g fill="#d1e7ff"><path d="m381.731 448.499c6.59 14.486-14.152 26.02-22.92 12.181-11.7-18.479-17.8-38.86-17.8-59.53v-159.15c8.268-7.205 15.611-9.285 22.561-8.765 4.189.314 7.439 3.785 7.439 7.986v159.929c0 12.854 3.894 32.344 10.72 47.349z"/><path d="m446.095 144h-98.084c-8.837 0-16 7.163-16 16v12c0 7.732-6.268 14-14 14-8.809 0-16-7.136-16-16v-30c0-8.837 7.163-16 16-16h128c13.923 0 13.007 20 .084 20z"/><path d="m382.291 8.001c8.869.049 11.229 12.28 3.013 15.62-18.024 7.326-31.293 24.967-31.293 46.379v45.889c0 4.48-3.632 8.111-8.111 8.111h-13.889v-65.106c0-27.629 22.144-51.048 50.28-50.893z"/></g><g fill="#2e58ff"><path d="m227.544 161.128c-3.368 2.86-3.779 7.909-.919 11.276 16.509 19.437 25.524 44.116 25.386 69.536v198.06c0 13.233-10.767 24-24 24h-178c-13.233 0-24-10.767-24-24v-198.06c0-40.07 21.85-76.393 57.127-95.235 3.384-.933 5.873-4.024 5.873-7.705v-44h100v36h-63.549c-4.418 0-8 3.582-8 8s3.582 8 8 8h71.549c4.418 0 8-3.582 8-8v-44h3c4.418 0 8-3.582 8-8s-3.582-8-8-8h-138c-4.418 0-8 3.582-8 8s3.582 8 8 8h3v39.005c-38.984 22.004-63 62.912-63 107.936v198.059c0 22.056 17.944 40 40 40h178c22.056 0 40-17.944 40-40v-198.016c.159-29.199-10.207-57.588-29.19-79.938-2.861-3.366-7.91-3.776-11.277-.918z"/><path d="m183.743 411h-89.464c-4.418 0-8 3.582-8 8s3.582 8 8 8h89.465c17.645 0 32-14.355 32-32v-151c0-17.645-14.355-32-32-32h-89.465c-17.645 0-32 14.355-32 32v140.742c0 4.418 3.582 8 8 8s8-3.582 8-8v-140.742c0-8.822 7.178-16 16-16h89.465c8.822 0 16 7.178 16 16v151c-.001 8.822-7.178 16-16.001 16z"/><path d="m446.011 116h-6v-58c0-31.981-26.019-58-58-58s-58 26.019-58 58v34.613c0 4.418 3.582 8 8 8s8-3.582 8-8v-34.613c0-23.159 18.841-42 42-42s42 18.841 42 42v66c0 4.418 3.582 8 8 8h14c4.411 0 8 3.589 8 8v30c0 4.411-3.589 8-8 8h-128c-4.411 0-8-3.589-8-8v-30c0-4.411 3.589-8 8-8h76.483c4.418 0 8-3.582 8-8s-3.582-8-8-8h-76.483c-13.233 0-24 10.767-24 24v30c0 13.233 10.767 24 24 24h97v207.148c0 19.041-5.728 38.147-16.562 55.254-6.415 10.128-26.459 10.132-32.876.001-10.835-17.107-16.563-36.214-16.563-55.255v-155.31c11.789-8.617 20.339-3.74 33.595 2.532 3.995 1.89 8.763.176 10.649-3.819s.173-8.758-3.819-10.649c-13.523-6.407-25.584-12.245-40.425-6.313v-5.428c0-4.418-3.582-8-8-8s-8 3.582-8 8v178.987c0 22.077 6.586 44.144 19.046 63.816 12.723 20.087 47.198 20.066 59.909-.001 12.459-19.672 19.045-41.738 19.045-63.815v-207.148h15c13.233 0 24-10.767 24-24v-30c.001-13.233-10.766-24-23.999-24z"/></g></svg>