<svg id="Layer_1" enable-background="new 0 0 480.005 480.005" height="512" viewBox="0 0 480.005 480.005" width="512" xmlns="http://www.w3.org/2000/svg"><path d="m439.746 185.005h-56.18c11.32-30.48 21.53-61.45 30.57-92.84 4.22-14.66-3.1-30.18-17.05-36.33-13.96-6.16-30.35-1.09-38.33 11.92-23.35 38.07-44.65 77.25-63.85 117.25h-251.16c-8.84 0-16 7.16-16 16v16c0 8.84 7.16 16 16 16h12v33.05c0 66.52 42.47 123.13 101.78 144.18-10.23 11.86-18.64 25-24.91 39.2-4.68 10.63 2.99 22.57 14.6 22.57h189.06c11.61 0 19.28-11.94 14.6-22.57-6.27-14.2-14.68-27.34-24.91-39.2 59.31-21.05 101.78-77.66 101.78-144.18v-33.05h12c8.84 0 16-7.16 16-16v-16c0-8.84-7.16-16-16-16z" fill="#d1e7ff"/><path d="m215.407 407.396c6.211 2.423 4.538 11.609-2.129 11.609h-4.583c-84.756 0-152.95-68.762-152.95-152.95v-33.05h54c3.314 0 6 2.686 6 6v27.05c0 65.571 41.44 118.631 99.662 141.341z" fill="#e8f3ff"/><path d="m350.875 449.435c4.68 10.63-2.99 22.57-14.6 22.57h-189.06c-11.61 0-19.28-11.94-14.6-22.57 6.27-14.2 14.68-27.34 24.91-39.2 16 5.68 33.22 8.77 51.17 8.77h66.1c17.95 0 35.17-3.09 51.17-8.77 10.23 11.86 18.64 25 24.91 39.2z" fill="#b9dcff"/><path d="m172.226 463.859c1.434 3.952-1.338 8.146-5.542 8.146h-19.469c-11.61 0-19.28-11.94-14.6-22.57 6.27-14.2 14.68-27.34 24.91-39.2 8.107 2.876 16.525 5.087 25.191 6.569 4.259.728 6.38 5.636 3.961 9.216-5.408 8.001-10.095 16.442-13.992 25.276-1.874 4.246-1.864 8.689-.459 12.563z" fill="#d1e7ff"/><path d="m455.746 201.005v16c0 8.84-7.16 16-16 16h-396c-8.84 0-16-7.16-16-16v-16c0-8.84 7.16-16 16-16h396c8.84 0 16 7.16 16 16z" fill="#b9dcff"/><path d="m440.823 185.041c12.667.842 11.701 19.964-.994 19.964h-356.084c-8.837 0-16 7.163-16 16v1.994c0 5.526-4.48 10.006-10.006 10.006h-13.993c-8.837 0-16-7.163-16-16v-16c0-8.837 7.163-16 16-16 0 0 396.721.012 397.077.036z" fill="#d1e7ff"/><path d="m397.086 55.835c13.95 6.15 21.27 21.67 17.05 36.33-9.04 31.39-19.25 62.36-30.57 92.84h-88.66c19.2-40 40.5-79.18 63.85-117.25 7.98-13.01 24.37-18.08 38.33-11.92z" fill="#b9dcff"/><path d="m397.215 55.893c5 2.233 5.54 9.253.941 12.226-3.716 2.402-6.954 5.646-9.401 9.637-20.633 33.639-39.667 68.143-57.057 103.323-1.188 2.403-3.629 3.927-6.31 3.927h-30.483c19.2-40 40.5-79.18 63.85-117.25 8.01-13.059 24.478-18.108 38.46-11.863z" fill="#d1e7ff"/><path d="m245.635 51.525c16.93 9.27 30.6 27.7 36.06 50.81 1.72 7.27-1.92 14.83-8.66 18.06-22.06 10.58-46.37 8.84-65-2.65-41.877-25.83-5.54-89.858 37.6-66.22z" fill="#d1e7ff"/><path d="m224.091 113.727c2.81 4.924-2.392 10.626-7.605 8.398-2.92-1.249-5.745-2.711-8.451-4.379-39.788-24.541-9.097-84.985 32.689-68.462 4.727 1.869 5.107 8.54.58 10.852-18.548 9.475-28.05 34.599-17.213 53.591z" fill="#e8f3ff"/><path d="m36.455 27.215c13.97-13.31 35.68-20.75 59.35-18.94 7.46.57 13.55 6.32 14.59 13.73 3.39 24.23-5.64 46.86-22.24 61.13-37.318 32.077-87.302-21.982-51.7-55.92z" fill="#d1e7ff"/><path d="m59.396 82.384c2.757 4.779-1.667 10.509-6.923 8.833-24.653-7.858-40.405-40.755-16.018-64.002 13.97-13.31 35.68-20.75 59.35-18.94 1.059.082 2.09.267 3.084.548 5.842 1.647 5.549 10.128-.352 11.548-12.636 3.041-23.738 8.899-32.082 16.844-14.822 14.13-14.808 31.739-7.059 45.169z" fill="#e8f3ff"/><g fill="#2e58ff"><path d="m439.746 177.005h-132.033c17.694-35.948 37.117-71.244 57.866-105.072 5.849-9.535 18.008-13.31 28.275-8.782 10.271 4.529 15.684 16.05 12.59 26.798-4.657 16.177-9.712 32.509-15.022 48.541-1.39 4.194.884 8.72 5.078 10.11 4.193 1.389 8.721-.884 10.109-5.079 5.377-16.231 10.495-32.766 15.21-49.146 5.299-18.404-3.949-38.122-21.51-45.865-17.561-7.742-38.355-1.269-48.369 15.057-22.365 36.461-43.206 74.606-62.03 113.438h-246.164c-13.234 0-24 10.766-24 24v16c0 13.234 10.766 24 24 24h4v25.048c0 64.275 38.446 122.255 96.743 147.625-7.698 10.195-14.144 21.092-19.189 32.531-7.018 15.911 4.539 33.795 21.914 33.795h189.066c17.388 0 28.927-17.894 21.912-33.795-1.454-3.297-3.046-6.598-4.732-9.809-2.053-3.912-6.888-5.418-10.802-3.365-3.912 2.054-5.418 6.89-3.364 10.802 1.518 2.892 2.951 5.862 4.26 8.83 2.371 5.377-1.467 11.338-7.273 11.338h-189.068c-5.811 0-9.644-5.964-7.274-11.338 5.865-13.297 13.82-25.815 23.644-37.208 3.67-4.256 1.887-10.891-3.383-12.764-57.692-20.477-96.454-75.39-96.454-136.642v-33.048c0-4.418-3.582-8-8-8h-12c-4.411 0-8-3.589-8-8v-16c0-4.411 3.589-8 8-8h396c4.411 0 8 3.588 8 8v16c0 4.411-3.589 8-8 8h-333.111c-4.418 0-8 3.582-8 8s3.582 8 8 8h333.111c13.233 0 24-10.766 24-24v-16c0-13.234-10.767-24-24-24z"/><path d="m427.847 260.363c-4.511-.055-8.053 3.543-8.117 7.88-1.166 78.719-66.184 142.761-144.936 142.761 0 0-67.989-.009-68.931-.027-4.39-.077-8.065 3.432-8.148 7.849s3.432 8.065 7.849 8.148c1.042.02 69.23.03 69.23.03 86.915 0 159.617-69.599 160.934-158.524.065-4.417-3.463-8.051-7.881-8.117z"/><path d="m31.571 87.852c-1.496 4.843-2.699 9.781-3.574 14.773-.763 4.352 2.147 8.498 6.5 9.26 4.36.766 8.5-2.158 9.26-6.5 4.167-23.785 16.241-45.236 34.703-60.99 3.361-2.868 3.761-7.917.893-11.278s-7.918-3.761-11.278-.893c-12.581 10.735-22.729 23.826-29.974 38.939-8.512-11.882-8.178-26.664 3.878-38.155 12.662-12.069 32.555-18.337 53.219-16.758 3.697.282 6.756 3.169 7.273 6.865 2.907 20.773-4.395 40.943-19.533 53.956-1.123.966-2.285 1.858-3.454 2.651-6.535 4.435-3.318 14.621 4.5 14.621 1.546 0 3.109-.448 4.485-1.381 20.259-13.749 34.132-41.452 29.849-72.064-1.553-11.088-10.764-19.752-21.904-20.602-25.48-1.943-49.346 5.758-65.474 21.13-21.163 20.171-18.111 48.776.631 66.426z"/><path d="m164.365 75.338c.593 4.378 4.626 7.45 9.002 6.853 2.785-.377 5.587-.641 8.394-.792-1.804 17.173 6.212 33.377 22.075 43.16 21.908 13.509 49.092 14.353 72.654 3.053 10.095-4.841 15.558-16.247 12.988-27.119-5.877-24.871-20.455-45.275-39.995-55.981-8.074-4.423-16.367-6.468-24.658-6.083-4.413.206-7.824 3.951-7.618 8.365s3.966 7.821 8.365 7.618c5.313-.245 10.766 1.143 16.223 4.132 15.342 8.405 27.347 25.463 32.112 45.628.853 3.609-.972 7.399-4.337 9.013-18.911 9.071-40.346 8.231-57.337-2.245-14.442-8.905-15.486-21.352-14.36-29.171 15.82 1.569 30.682 6.626 44.136 14.991 3.736 2.322 8.675 1.199 11.018-2.57 2.333-3.752 1.183-8.685-2.57-11.018-24.463-15.209-52.509-20.461-79.24-16.834-4.378.591-7.446 4.621-6.852 9z"/><circle cx="129.745" cy="133.005" r="16"/><circle cx="164.745" cy="28.005" r="12"/></g></svg>