<svg height="50" viewBox="0 0 480.005 480.005" width="50" xmlns="http://www.w3.org/2000/svg"><path d="M439.746 185.005h-56.18c11.32-30.48 21.53-61.45 30.57-92.84 4.22-14.66-3.1-30.18-17.05-36.33-13.96-6.16-30.35-1.09-38.33 11.92a1302 1302 0 0 0-63.85 117.25H43.746c-8.84 0-16 7.16-16 16v16c0 8.84 7.16 16 16 16h12v33.05c0 66.52 42.47 123.13 101.78 144.18-10.23 11.86-18.64 25-24.91 39.2-4.68 10.63 2.99 22.57 14.6 22.57h189.06c11.61 0 19.28-11.94 14.6-22.57-6.27-14.2-14.68-27.34-24.91-39.2 59.31-21.05 101.78-77.66 101.78-144.18v-33.05h12c8.84 0 16-7.16 16-16v-16c0-8.84-7.16-16-16-16" fill="#d1ffdc"></path><path d="M215.407 407.396c6.211 2.423 4.538 11.609-2.129 11.609h-4.583c-84.756 0-152.95-68.762-152.95-152.95v-33.05h54a6 6 0 0 1 6 6v27.05c0 65.571 41.44 118.631 99.662 141.341" fill="#e8ffef"></path><path d="M350.875 449.435c4.68 10.63-2.99 22.57-14.6 22.57h-189.06c-11.61 0-19.28-11.94-14.6-22.57 6.27-14.2 14.68-27.34 24.91-39.2 16 5.68 33.22 8.77 51.17 8.77h66.1c17.95 0 35.17-3.09 51.17-8.77 10.23 11.86 18.64 25 24.91 39.2" fill="#b9ffcb"></path><path d="M172.226 463.859c1.434 3.952-1.338 8.146-5.542 8.146h-19.469c-11.61 0-19.28-11.94-14.6-22.57 6.27-14.2 14.68-27.34 24.91-39.2a152 152 0 0 0 25.191 6.569c4.259.728 6.38 5.636 3.961 9.216a161.6 161.6 0 0 0-13.992 25.276c-1.874 4.246-1.864 8.689-.459 12.563" fill="#d1ffdc"></path><path d="M455.746 201.005v16c0 8.84-7.16 16-16 16h-396c-8.84 0-16-7.16-16-16v-16c0-8.84 7.16-16 16-16h396c8.84 0 16 7.16 16 16" fill="#b9ffcb"></path><path d="M440.823 185.041c12.667.842 11.701 19.964-.994 19.964H83.745c-8.837 0-16 7.163-16 16v1.994c0 5.526-4.48 10.006-10.006 10.006H43.746c-8.837 0-16-7.163-16-16v-16c0-8.837 7.163-16 16-16 0 0 396.721.012 397.077.036" fill="#d1ffdc"></path><path d="M397.086 55.835c13.95 6.15 21.27 21.67 17.05 36.33-9.04 31.39-19.25 62.36-30.57 92.84h-88.66c19.2-40 40.5-79.18 63.85-117.25 7.98-13.01 24.37-18.08 38.33-11.92" fill="#b9ffcb"></path><path d="M397.215 55.893c5 2.233 5.54 9.253.941 12.226a30.3 30.3 0 0 0-9.401 9.637 1296 1296 0 0 0-57.057 103.323a7.04 7.04 0 0 1-6.31 3.927h-30.483c19.2-40 40.5-79.18 63.85-117.25 8.01-13.059 24.478-18.108 38.46-11.863m-151.58-4.368c16.93 9.27 30.6 27.7 36.06 50.81 1.72 7.27-1.92 14.83-8.66 18.06-22.06 10.58-46.37 8.84-65-2.65-41.877-25.83-5.54-89.858 37.6-66.22" fill="#d1ffdc"></path><path d="M224.091 113.727c2.81 4.924-2.392 10.626-7.605 8.398a64 64 0 0 1-8.451-4.379c-39.788-24.541-9.097-84.985 32.689-68.462 4.727 1.869 5.107 8.54.58 10.852-18.548 9.475-28.05 34.599-17.213 53.591" fill="#e8ffef"></path><path d="M36.455 27.215c13.97-13.31 35.68-20.75 59.35-18.94 7.46.57 13.55 6.32 14.59 13.73 3.39 24.23-5.64 46.86-22.24 61.13-37.318 32.077-87.302-21.982-51.7-55.92" fill="#d1ffdc"></path><path d="M59.396 82.384c2.757 4.779-1.667 10.509-6.923 8.833-24.653-7.858-40.405-40.755-16.018-64.002 13.97-13.31 35.68-20.75 59.35-18.94 1.059.082 2.09.267 3.084.548 5.842 1.647 5.549 10.128-.352 11.548-12.636 3.041-23.738 8.899-32.082 16.844-14.822 14.13-14.808 31.739-7.059 45.169" fill="#e8ffef"></path><g fill="#2f7d32"><path d="M439.746 177.005H307.713c17.694-35.948 37.117-71.244 57.866-105.072 5.849-9.535 18.008-13.31 28.275-8.782 10.271 4.529 15.684 16.05 12.59 26.798a1291 1291 0 0 1-15.022 48.541 8 8 0 1 0 15.187 5.031 1304 1304 0 0 0 15.21-49.146c5.299-18.404-3.949-38.122-21.51-45.865-17.561-7.742-38.355-1.269-48.369 15.057-22.365 36.461-43.206 74.606-62.03 113.438H43.746c-13.234 0-24 10.766-24 24v16c0 13.234 10.766 24 24 24h4v25.048c0 64.275 38.446 122.255 96.743 147.625-7.698 10.195-14.144 21.092-19.189 32.531-7.018 15.911 4.539 33.795 21.914 33.795H336.28c17.388 0 28.927-17.894 21.912-33.795a161 161 0 0 0-4.732-9.809 8 8 0 1 0-14.166 7.437 145 145 0 0 1 4.26 8.83c2.371 5.377-1.467 11.338-7.273 11.338H147.213c-5.811 0-9.644-5.964-7.274-11.338 5.865-13.297 13.82-25.815 23.644-37.208 3.67-4.256 1.887-10.891-3.383-12.764-57.692-20.477-96.454-75.39-96.454-136.642v-33.048a8 8 0 0 0-8-8h-12c-4.411 0-8-3.589-8-8v-16c0-4.411 3.589-8 8-8h396c4.411 0 8 3.588 8 8v16c0 4.411-3.589 8-8 8H106.635a8 8 0 0 0 0 16h333.111c13.233 0 24-10.766 24-24v-16c0-13.234-10.767-24-24-24"></path><path d="M427.847 260.363a8 8 0 0 0-8.117 7.88c-1.166 78.719-66.184 142.761-144.936 142.761 0 0-67.989-.009-68.931-.027-4.39-.077-8.065 3.432-8.148 7.849a8 8 0 0 0 7.849 8.148c1.042.02 69.23.03 69.23.03 86.915 0 159.617-69.599 160.934-158.524a8 8 0 0 0-7.881-8.117M31.571 87.852a121 121 0 0 0-3.574 14.773 8 8 0 0 0 6.5 9.26c4.36.766 8.5-2.158 9.26-6.5C47.924 81.6 59.998 60.149 78.46 44.395a8 8 0 1 0-10.385-12.171C55.494 42.959 45.346 56.05 38.101 71.163c-8.512-11.882-8.178-26.664 3.878-38.155C54.641 20.939 74.534 14.671 95.198 16.25c3.697.282 6.756 3.169 7.273 6.865 2.907 20.773-4.395 40.943-19.533 53.956a38 38 0 0 1-3.454 2.651c-6.535 4.435-3.318 14.621 4.5 14.621a7.97 7.97 0 0 0 4.485-1.381c20.259-13.749 34.132-41.452 29.849-72.064C116.765 9.81 107.554 1.146 96.414.296c-25.48-1.943-49.346 5.758-65.474 21.13-21.163 20.171-18.111 48.776.631 66.426m132.794-12.514c.593 4.378 4.626 7.45 9.002 6.853 2.785-.377 5.587-.641 8.394-.792-1.804 17.173 6.212 33.377 22.075 43.16 21.908 13.509 49.092 14.353 72.654 3.053 10.095-4.841 15.558-16.247 12.988-27.119-5.877-24.871-20.455-45.275-39.995-55.981-8.074-4.423-16.367-6.468-24.658-6.083a8 8 0 0 0-7.618 8.365c.206 4.414 3.966 7.821 8.365 7.618 5.313-.245 10.766 1.143 16.223 4.132 15.342 8.405 27.347 25.463 32.112 45.628.853 3.609-.972 7.399-4.337 9.013-18.911 9.071-40.346 8.231-57.337-2.245-14.442-8.905-15.486-21.352-14.36-29.171 15.82 1.569 30.682 6.626 44.136 14.991 3.736 2.322 8.675 1.199 11.018-2.57a8 8 0 0 0-2.57-11.018c-24.463-15.209-52.509-20.461-79.24-16.834a7.995 7.995 0 0 0-6.852 9"></path><circle cx="129.745" cy="133.005" r="16"></circle><circle cx="164.745" cy="28.005" r="12"></circle></g></svg>
