                       <svg height="50" viewBox="0 0 479.999 479.999" width="50" xmlns="http://www.w3.org/2000/svg"><path d="M411.038 375.119c26.39-67.97 6.48-149.1-72.37-195.94-2.8-13.688-12.188-24.969-24.706-30.409l9.446-29.222c3-9.27-2.09-19.21-11.35-22.2l-4.51-1.46 11.52-58.91c1.71-8.76-3.39-17.42-11.88-20.16l-24.63-7.96c-8.5-2.75-17.7 1.29-21.44 9.39l-25.14 54.51-4.51-1.46c-9.26-3-19.21 2.09-22.2 11.35l-44.4 137.35c-3 9.27 2.09 19.21 11.36 22.21l2.87.93-4.2 12.99c-4.49 13.9 3.13 28.81 17.04 33.3l24.49 7.92c13.9 4.5 28.81-3.13 33.3-17.03l4.2-12.99 2.88.93c9.27 2.99 19.21-2.09 22.2-11.36l8.94-27.655c11.709 2.555 23.92.107 33.7-6.855 54.34 31.92 69.73 101.43 37.83 152.73h-4.82c-8.418 0-16.15 4.401-20.46 11.44l-19.81 32.3H61.917c-12.78 0-21.08 13.61-15.08 24.9 8.92 16.8 26.6 28.24 46.96 28.24h294.41c26.82 0 46.96-22.11 46.96-47.53v-25.35a23.993 23.993 0 0 0-24.129-23.999" fill="#d1ffdc"/><path d="M434.827 395.119h-50.17c-8.418 0-16.15 4.401-20.46 11.44l-19.81 32.3H91.917c-12.78 0-21.08 13.61-15.08 24.9 1.24 2.34 2.66 4.58 4.23 6.7-14.85-3.64-27.23-13.52-34.23-26.7-6-11.29 2.3-24.9 15.08-24.9h252.47l19.81-32.3c4.309-7.037 12.041-11.44 20.46-11.44h56.51c11.891 0 21.76 8.65 23.66 20m-111.1-276.701-62.26-20.12c-9.26-3-19.21 2.09-22.2 11.35 0 0-44.63 138.1-44.72 138.48l-18.32-5.92c-9.27-3-14.36-12.94-11.36-22.21l44.4-137.35c2.99-9.26 12.94-14.35 22.2-11.35l80.59 26.05c8.88 2.871 13.93 12.131 11.67 21.07" fill="#e8ffef"/><path d="M338.895 179.179c78.85 46.84 98.76 127.97 72.37 195.94h-51.56c31.9-51.3 16.51-120.81-37.83-152.73 13.629-9.712 20.413-26.488 17.02-43.21m-84.968 88.15-4.2 12.99c-4.49 13.9-19.4 21.53-33.3 17.03l-24.49-7.92c-13.91-4.49-21.53-19.4-17.04-33.3l4.2-12.99z" fill="#a2ffa2"/><path d="m203.768 293.249-11.83-3.82c-13.91-4.49-21.53-19.4-17.04-33.3l4.2-12.99 22.95 7.42-4.17 12.91c-3.441 10.65-.85 21.809 5.89 29.78m103.419-276.43c8.49 2.74 13.59 11.4 11.88 20.16l-11.52 58.91-71.57-23.13 25.14-54.51c3.74-8.1 12.94-12.14 21.44-9.39z" fill="#b9ffcb"/><path d="m319.387 32.948-18.83-6.09c-8.5-2.75-17.7 1.29-21.44 9.39l-20.25 43.91-22.89-7.4 25.14-54.51c3.74-8.1 12.94-12.14 21.44-9.39l24.63 7.96c7.18 2.31 11.93 8.86 12.2 16.13" fill="#d1ffdc"/><path d="M338.667 179.179c5.376 26.496-14.818 51.05-41.63 51.05-23.46 0-42.48-19.02-42.48-42.49 0-23.46 19.02-42.48 42.48-42.48 20.541-.001 37.67 14.56 41.63 33.92" fill="#b9ffcb"/><path d="M274.558 197.739c0 12.59 5.47 23.9 14.17 31.68-19.48-3.87-34.17-21.06-34.17-41.68 0-23.46 19.02-42.48 42.48-42.48 10.89 0 20.82 4.09 28.33 10.82-26.318-5.264-50.81 14.912-50.81 41.66" fill="#d1ffdc"/><g fill="#2f7d32"><path d="M115.299 391.773H336.2a8 8 0 0 0 6.152-2.887c6.174-7.427 14.339-5.468 17.802-5.771h20.197c10.578 0 10.591-16 0-16h-7.454c18.466-39.55 13.587-87.08-13.59-122.155a8.001 8.001 0 0 0-12.649 9.799c25.067 32.353 28.184 76.958 8.258 112.356-8.836 0-16.463 3.31-22.155 8.658H115.299a8 8 0 0 0 0 16"/><path d="M421.725 368.936c23.122-71.16-1.698-149.13-76.115-194.903-3.401-12.058-11.187-22.527-21.964-29.208l7.375-22.816c4.347-13.449-3.059-27.928-16.508-32.276L247.02 67.916l21.36-46.313a9.64 9.64 0 0 1 11.713-5.134l24.627 7.961a9.64 9.64 0 0 1 6.492 11.018L306.8 58.013a8 8 0 0 0 6.316 9.387 8 8 0 0 0 9.387-6.316l4.413-22.565c2.489-12.723-4.937-25.325-17.273-29.313l-24.628-7.961c-12.33-3.985-25.731 1.884-31.163 13.656l-22.211 48.16c-12.68-2.859-25.844 4.313-29.987 17.131l-44.398 137.352c-3.881 12.003 1.563 24.548 11.918 30.286l-1.887 5.838c-5.843 18.075 4.109 37.535 22.186 43.379l24.493 7.917c6.632 2.144 13.912 2.322 21.033.053a8 8 0 0 0 5.193-10.051 8 8 0 0 0-10.051-5.193 18.34 18.34 0 0 1-11.254-.033l-24.493-7.917c-9.682-3.13-15.012-13.552-11.883-23.232l1.739-5.379 70.096 22.659c13.506 4.363 27.926-3.045 32.276-16.508a8 8 0 0 0-5.152-10.072 8 8 0 0 0-10.072 5.152c-1.635 5.06-7.062 7.844-12.13 6.203l-80.585-26.049a9.63 9.63 0 0 1-6.203-12.13l44.398-137.353a9.63 9.63 0 0 1 12.131-6.204l80.583 26.049c5.056 1.634 7.839 7.076 6.205 12.131l-9.443 29.214a8 8 0 0 0 4.422 9.797 34.5 34.5 0 0 1 20.748 31.643c0 19.015-15.469 34.483-34.483 34.483s-34.484-15.469-34.484-34.483c0-13.005 7.196-24.772 18.779-30.711a8.001 8.001 0 0 0-7.299-14.239c-16.95 8.689-27.48 25.913-27.48 44.949 0 27.837 22.647 50.483 50.484 50.483 25.662 0 46.897-19.251 50.062-44.067 68.051 47.82 78.021 122.586 56.475 178.062-2.029 5.223 1.819 10.896 7.457 10.896 8.894 0 16.129 7.178 16.129 16v25.355c0 21.796-17.477 39.528-38.958 39.528H93.793c-16.743 0-32.029-9.194-39.894-23.994-3.143-5.918 1.226-13.146 8.022-13.146h252.461a8 8 0 0 0 0-16H61.922c-18.839 0-30.972 20.052-22.151 36.652 10.647 20.039 31.348 32.487 54.022 32.487h294.412c30.304 0 54.958-24.91 54.958-55.528v-25.355c0-13.914-8.962-25.783-21.438-30.18"/><path d="M361.234 412.741a8 8 0 0 0 8 8h20.902a8 8 0 0 0 0-16h-20.902a8 8 0 0 0-8 8"/></g></svg>
