<svg height="50" viewBox="0 0 463.996 463.996" width="50" xmlns="http://www.w3.org/2000/svg"><g fill="#befa91"><path d="M199.696 55.26c56.1 56.1 56.38 120.44 54.94 163.96-.63 19.25-16.1 34.71-35.35 35.34-43.62 1.43-107.8 1.3-163.99-54.9C-.804 143.57-1.084 79.22.356 35.7.986 16.45 16.456.99 35.706.36c43.62-1.43 107.8-1.3 163.99 54.9"/><path d="M408.736 264.3c56.2 56.19 56.33 120.37 54.9 163.99-.63 19.25-16.09 34.72-35.34 35.35-43.52 1.44-107.87 1.16-163.96-54.94-56.2-56.19-56.33-120.37-54.9-163.99.63-19.25 16.09-34.72 35.34-35.35 43.52-1.44 107.86-1.16 163.96 54.94"/><path d="M244.646 242.56c1.12 31.73 2.05 80.11-39.98 122.14-42.1 42.1-90.34 41.06-122.16 39.95-12.59-.44-22.7-10.54-23.14-23.13-1.12-31.74-2.05-80.11 39.98-122.14 42.1-42.1 90.34-41.06 122.16-39.95 12.59.44 22.7 10.54 23.14 23.13"/></g><path d="M143.346 272.38c-36.654 36.654-42.787 87.391-40.78 114.803.711 9.712-7.199 17.886-16.932 17.573q-1.59-.051-3.128-.106c-12.59-.44-22.7-10.54-23.14-23.13-1.12-31.74-2.05-80.11 39.98-122.14 14.617-14.617 29.973-24.031 45.127-30.051 7.567-3.006 16.193-.005 20.284 7.034 4.261 7.333 2.208 16.645-4.647 21.639-5.657 4.121-11.262 8.882-16.764 14.378m-47.498-97.465c16.463 22.429-13.68 49.417-34.283 30.718a180 180 0 0 1-6.269-5.973C-.804 143.57-1.084 79.22.356 35.7.986 16.45 16.456.99 35.706.36c16.483-.536 27.396 14.552 23.449 29.135-9.75 36.018.858 96.598 36.693 145.42" fill="#daffbf"/><path d="m384.913 373.603-39.697-39.697c8.447-5.277 17.538-7.881 26.565-8.191a8 8 0 0 0 7.72-8.271c-.151-4.416-3.847-7.866-8.271-7.72-13.757.474-26.612 5.009-37.556 12.64L297.9 286.59c10.662-7.742 23.257-12.499 36.756-13.618 4.403-.365 7.678-4.23 7.313-8.633s-4.244-7.678-8.633-7.312c-16.834 1.395-33.044 7.489-46.861 18.138L188.83 177.52c10.668-13.842 16.745-30.055 18.138-46.86a8 8 0 0 0-7.312-8.634 7.996 7.996 0 0 0-8.634 7.312c-1.084 13.077-5.626 25.75-13.618 36.756l-35.775-35.775c7.643-10.96 12.169-23.817 12.641-37.555a8 8 0 0 0-7.72-8.271c-4.382-.147-8.119 3.303-8.271 7.72-.325 9.394-3.106 18.426-8.191 26.565L90.394 79.083A8 8 0 0 0 79.08 90.397l19.697 19.697c-8.447 5.277-17.538 7.881-26.565 8.191a8 8 0 0 0 .27 15.996c2.502 0 7.545-.471 12.168-1.453 9.129-1.928 17.879-5.761 25.668-11.192l35.774 35.774c-10.641 7.726-23.231 12.497-36.756 13.618a8 8 0 0 0 1.32 15.945c16.836-1.395 33.045-7.49 46.861-18.138L220.682 232l-47.087 47.087c-10.864-5.222-23.205-6.776-35.448-3.871a8 8 0 0 0-5.935 9.632 8 8 0 0 0 9.632 5.936c6.28-1.491 12.865-1.386 19.431.623l-30.937 30.937c-5.056 5.056-1.405 13.657 5.657 13.657a7.97 7.97 0 0 0 5.657-2.343l50.936-50.936c2.014 6.583 2.111 13.161.623 19.432-1.191 5.022 2.621 9.849 7.791 9.849a8.004 8.004 0 0 0 7.777-6.155c2.908-12.251 1.346-24.592-3.871-35.446l27.087-27.087 63.166 63.165c-10.668 13.842-16.745 30.055-18.138 46.86a8 8 0 0 0 7.312 8.634c4.448.366 8.272-2.95 8.634-7.312 1.084-13.077 5.626-25.75 13.618-36.756l35.775 35.775c-7.643 10.96-12.169 23.817-12.641 37.555a8 8 0 1 0 15.991.551c.325-9.394 3.106-18.426 8.191-26.565l19.697 19.697a7.97 7.97 0 0 0 5.657 2.343c7.064-.002 10.71-8.605 5.656-13.659" fill="#9ceb63"/><path d="M221.758 350.375a179 179 0 0 1-1.581-4.005c22.043-31.178 26.519-65.717 24.51-103.85-.44-12.59-10.56-22.461-23.14-23.13-36.791-1.956-70.498 2.024-101.21 22.64a179 179 0 0 1-3.858-1.499c-6.093-2.451-6.746-10.771-1.173-14.247 40.402-25.198 82.221-23.738 106.801-22.883 21.057.729 37.862 17.86 38.57 38.56.897 25.176 2.416 68.46-24.842 109.813-3.531 5.354-11.651 4.538-14.077-1.399" fill="#9ceb63"/><path d="M364.646 204.62c-42.1 42.1-90.34 41.06-122.16 39.95-12.594-.448-22.697-10.545-23.14-23.13-1.12-31.73-2.05-80.11 39.98-122.14 42.1-42.1 90.34-41.06 122.16-39.95 12.59.44 22.7 10.54 23.14 23.13 1.12 31.74 2.05 80.11-39.98 122.14" fill="#befa91"/><path d="M347.597 223.41c6.046 2.432 6.793 10.735 1.27 14.193-32.508 20.355-66.357 24.319-103.882 23.056-18.343-.523-31.124-9.012-37.72-22.77-3.265-6.762-3.805-12.029-4.01-18.8-.834-24.886-1.266-65.069 23.067-103.977 3.472-5.552 11.779-4.876 14.229 1.197a184 184 0 0 1 1.514 3.88c-20.533 30.571-24.664 64.345-22.72 101.25.395 11.241 8.266 22.538 25.38 23.21 26.52.88 63.59 1.05 99.01-22.74q1.93.724 3.862 1.501" fill="#9ceb63"/><path d="M274.253 224.838c3.011 9.983-4.421 20.062-14.848 20.084-6.017.013-11.69-.168-16.919-.352-12.594-.448-22.697-10.545-23.14-23.13-1.12-31.73-2.05-80.11 39.98-122.14 11.444-11.444 24.253-19.851 37.266-25.961 15.841-7.437 29.938 12.933 17.478 25.221-33.324 32.869-49.286 94.88-39.817 126.278" fill="#daffbf"/><path d="m333.656 141.66-30.94 30.93c6.609 2.023 13.156 2.11 19.43.63 4.31-1.02 8.61 1.63 9.63 5.93s-1.63 8.61-5.93 9.63c-11.775 2.813-24.227 1.542-35.45-3.87-10.428 10.435-46.928 46.935-57.35 57.36a23.97 23.97 0 0 1-11.35-11.29l37.39-37.38c-5.325-11.041-6.727-23.422-3.87-35.45 1.02-4.3 5.33-6.96 9.63-5.93 4.3 1.02 6.95 5.33 5.93 9.63-1.487 6.305-1.383 12.854.63 19.43 97.255-97.255 19.417-19.477 50.93-50.94 3.127-3.123 8.19-3.12 11.32 0a8.015 8.015 0 0 1 0 11.32" fill="#9ceb63"/></svg>